PathFileType	4	(X/Y/Z)	./resultDataOpenSim/trcMotMarkerGrf/sub06/qtm-13-01.trc
DataRate	CameraRate	NumFrames	NumMarkers	Units	OrigDataRate	OrigDataStartFrame	OrigNumFrames
250.000000	250.000000	14	24	m	250.000000	139	553
Frame#	Time	L.Toe.Tip			R.Toe.Tip			L.Ankle.Lat			R.Ankle.Lat			L.Ankle.Med			R.Ankle.Med			L.Heel			R.Heel			L.Knee.Lat			R.Knee.Lat			L.Knee.Med			R.Knee.Med			L.Thigh.Upper			R.Thigh.Upper			L.ASIS			R.ASIS			V.Sacral			L.Acromium			R.Acromium			C7			L.Elbow			R.Elbow			L.Wrist.Lat			R.Wrist.Lat
		X1	Y1	Z1	X2	Y2	Z2	X3	Y3	Z3	X4	Y4	Z4	X5	Y5	Z5	X6	Y6	Z6	X7	Y7	Z7	X8	Y8	Z8	X9	Y9	Z9	X10	Y10	Z10	X11	Y11	Z11	X12	Y12	Z12	X13	Y13	Z13	X14	Y14	Z14	X15	Y15	Z15	X16	Y16	Z16	X17	Y17	Z17	X18	Y18	Z18	X19	Y19	Z19	X20	Y20	Z20	X21	Y21	Z21	X22	Y22	Z22	X23	Y23	Z23	X24	Y24	Z24

139	0.552	-0.08828941	0.15075382	-0.078378022	-0.81288295	0.034099352	0.087277405	-0.20809897	0.10661126	-0.092776746	-0.93799618	0.084803439	0.10734161	-0.21178784	0.12201263	-0.0082998213	-0.91195351	0.095855017	0.021594114	-0.24556347	0.038569869	-0.040713466	-0.99673094	0.072721707	0.045678231	-0.363138	0.43839744	-0.09338211	-0.74135595	0.41989829	0.14318917	-0.38505388	0.42781167	0.032106055	-0.76355765	0.42296556	0.011017256	-0.55246313	0.77338041	-0.14272083	-0.63666	0.76624732	0.20500136	-0.49451813	0.81802617	-0.087030415	-0.52405751	0.81585161	0.16185613	-0.69059792	0.89179694	0.025513591	-0.59412653	1.3044183	-0.15552615	-0.5539602	1.2948892	0.2014529	-0.65256496	1.3341332	0.030682997	-0.70342569	1.0117688	-0.20357628	-0.50035597	0.99019613	0.31104651	-0.62461406	0.7861978	-0.25046663	-0.26486025	0.94094457	0.25390051
140	0.556	-0.078975149	0.15151748	-0.07788899	-0.81283083	0.034090458	0.087391759	-0.19855704	0.10670557	-0.09234338	-0.93718967	0.086328321	0.10783361	-0.20231775	0.12217229	-0.0078376409	-0.91088919	0.097182567	0.022121535	-0.23567878	0.038460033	-0.040205916	-0.99603411	0.074915106	0.046456407	-0.35534507	0.43779601	-0.093207313	-0.73709674	0.41951006	0.14335939	-0.377163	0.4272594	0.03226321	-0.75861392	0.42242678	0.01107773	-0.54470814	0.77223878	-0.14283617	-0.62992914	0.76494779	0.20368152	-0.48711586	0.81673583	-0.086721835	-0.51756203	0.81465667	0.16187937	-0.68380994	0.89076862	0.025134941	-0.58733867	1.3029804	-0.15602395	-0.54724935	1.293693	0.20100019	-0.64580102	1.3328587	0.030148146	-0.6971584	1.0107096	-0.20355707	-0.49244391	0.98928825	0.31064327	-0.62072976	0.7845606	-0.25123867	-0.25670318	0.94158016	0.25285965
141	0.56	-0.070121918	0.15185411	-0.077373474	-0.81272138	0.034085025	0.087494461	-0.18955799	0.10654764	-0.091946739	-0.93628806	0.087941277	0.1083724	-0.19339385	0.12203224	-0.0074027504	-0.9097903	0.098629897	0.022682883	-0.22643694	0.038161477	-0.039766472	-0.99524465	0.077218282	0.047284702	-0.34754499	0.43719768	-0.093084663	-0.73272393	0.41914201	0.14352801	-0.36913034	0.42688735	0.032360499	-0.7535736	0.42190376	0.011146572	-0.53695918	0.77123692	-0.14301672	-0.62301434	0.76367551	0.20221767	-0.47964886	0.81558087	-0.086394209	-0.51100117	0.81348119	0.16189084	-0.67691668	0.88977146	0.024681865	-0.58044889	1.301582	-0.15657499	-0.5405126	1.2925697	0.20049974	-0.63897993	1.3316322	0.029564111	-0.69082398	1.009683	-0.20354162	-0.48463943	0.98843562	0.31016959	-0.61664826	0.7830143	-0.25196832	-0.24866681	0.94213848	0.25183196
142	0.564	-0.061739126	0.1517525	-0.076846826	-0.81255978	0.034098856	0.087602841	-0.18109362	0.10613268	-0.091570185	-0.93527152	0.089643182	0.10896335	-0.18499407	0.12160899	-0.0069781382	-0.90870401	0.10017116	0.023264505	-0.21784212	0.037662027	-0.039368728	-0.9943811	0.07973967	0.048099252	-0.33961121	0.43665179	-0.09298226	-0.72820076	0.41879234	0.14369772	-0.36098865	0.42668063	0.032398485	-0.74843375	0.42139495	0.011216326	-0.52919648	0.77039788	-0.14322751	-0.6161116	0.76251354	0.20080747	-0.47206688	0.81456351	-0.086054788	-0.50440005	0.81233722	0.16190316	-0.66990887	0.88879988	0.024121038	-0.57346233	1.3002268	-0.15717866	-0.53373911	1.2915302	0.19995206	-0.63210377	1.3304554	0.028933126	-0.68442115	1.0086894	-0.20353304	-0.47695192	0.98763217	0.30964176	-0.61244402	0.78154016	-0.25269416	-0.24073924	0.94261866	0.25082284
143	0.568	-0.053830098	0.15120092	-0.076322433	-0.81237134	0.034146687	0.087736258	-0.17314766	0.10545312	-0.091175996	-0.9341395	0.09142798	0.10958768	-0.17707362	0.12093693	-0.0065289455	-0.90757327	0.10177483	0.023860141	-0.20988762	0.036956995	-0.038968902	-0.99346183	0.082510441	0.048918691	-0.3314681	0.43619254	-0.092875113	-0.7235045	0.41847312	0.14386989	-0.35277273	0.42661656	0.032384072	-0.74318732	0.42089908	0.011281279	-0.52136503	0.76972228	-0.14342386	-0.60947662	0.76154932	0.19960108	-0.46439013	0.81368058	-0.085708652	-0.49777514	0.81124066	0.16192892	-0.66279709	0.88785498	0.023442613	-0.56637725	1.2989163	-0.15782677	-0.52692007	1.2905794	0.19936631	-0.62517158	1.3293393	0.02825168	-0.67794258	1.0077278	-0.20351713	-0.46937437	0.98686544	0.30906371	-0.60816636	0.78013294	-0.25344623	-0.23290697	0.94301835	0.24983462
144	0.572	-0.046389226	0.15019192	-0.07580955	-0.81216018	0.034228398	0.087894945	-0.1657026	0.10450326	-0.090735657	-0.93289908	0.093285508	0.11022328	-0.16956942	0.12006166	-0.0060112637	-0.90629478	0.10343438	0.024481181	-0.20256179	0.03605245	-0.038527709	-0.99242491	0.085431302	0.049812231	-0.32322115	0.43581122	-0.092782786	-0.71863967	0.41819862	0.14404073	-0.34451156	0.42667228	0.03232632	-0.73781882	0.4204129	0.0113463	-0.51344579	0.76916529	-0.1435855	-0.6031789	0.76078972	0.19853311	-0.45667781	0.81292355	-0.085361871	-0.49112041	0.81019351	0.16197136	-0.65560121	0.88693944	0.022650626	-0.55918803	1.2976505	-0.15850637	-0.52006054	1.2897123	0.19875117	-0.61819678	1.3283059	0.027506636	-0.67137574	1.006798	-0.20345443	-0.46188766	0.98612826	0.30842167	-0.60375527	0.77881554	-0.25419774	-0.22516636	0.94333345	0.24886456
145	0.576	-0.03940454	0.14872814	-0.075313691	-0.81191027	0.034321655	0.088064862	-0.15873431	0.10329506	-0.090218424	-0.93154814	0.095215439	0.11086888	-0.16243697	0.11900672	-0.0054005087	-0.9048402	0.10516257	0.025142337	-0.19584858	0.034962031	-0.038018643	-0.9911894	0.088402556	0.050809626	-0.31503094	0.43548895	-0.092741462	-0.71362347	0.41796594	0.14420713	-0.33622609	0.42682363	0.032234479	-0.73231123	0.41993919	0.011416749	-0.50548323	0.76867612	-0.14372516	-0.5969627	0.76013575	0.19734464	-0.44894948	0.81228176	-0.085021891	-0.48442025	0.80918198	0.16202115	-0.64834259	0.88605505	0.021754071	-0.55189262	1.2964321	-0.15920795	-0.51317562	1.2889201	0.19810901	-0.61121017	1.3273814	0.026680222	-0.66473042	1.0059186	-0.2033712	-0.45447972	0.9854186	0.30770743	-0.59912547	0.77760687	-0.25490008	-0.21752133	0.94356244	0.24791041
146	0.58	-0.032865303	0.14682661	-0.074836574	-0.81160612	0.03440157	0.08822959	-0.15221797	0.10185402	-0.089591182	-0.93007003	0.097237281	0.11153853	-0.15570103	0.11775027	-0.0047239716	-0.90324266	0.10696949	0.025844523	-0.18972594	0.033699268	-0.037432115	-0.98975099	0.091449803	0.051854858	-0.30690097	0.43524102	-0.092745636	-0.7084582	0.41774993	0.14436463	-0.32792789	0.42704387	0.03211806	-0.7266538	0.41948687	0.011493875	-0.49752321	0.76825074	-0.14386456	-0.59041761	0.75946445	0.19592719	-0.4411816	0.81174537	-0.084695068	-0.47766778	0.80819227	0.16205967	-0.64104217	0.88520233	0.020763217	-0.54449789	1.2952669	-0.15993169	-0.50627371	1.2881977	0.1974362	-0.60422741	1.3265681	0.025770778	-0.65803739	1.0051198	-0.2033648	-0.44715322	0.98473539	0.30692972	-0.59428577	0.77649224	-0.25554708	-0.20997473	0.94370653	0.24696999
147	0.584	-0.026766672	0.14451744	-0.074376897	-0.81125315	0.034461166	0.088379658	-0.14615771	0.10018931	-0.088880291	-0.92844406	0.099370214	0.1122387	-0.14944823	0.11624698	-0.0040535125	-0.90152124	0.10885689	0.02657542	-0.18416925	0.032270191	-0.036778058	-0.98814112	0.094656523	0.052862013	-0.29872496	0.43509833	-0.092759233	-0.70311602	0.41752927	0.14451234	-0.31961919	0.42730476	0.031985029	-0.7208399	0.41906314	0.011576427	-0.48953237	0.76792127	-0.14400539	-0.58331937	0.75870606	0.19460348	-0.43335309	0.81130453	-0.084387872	-0.47086244	0.80722372	0.16207044	-0.6337225	0.88438059	0.019688169	-0.53701721	1.2941615	-0.1606858	-0.49934551	1.2875468	0.19673009	-0.5972094	1.3258198	0.02481226	-0.65130586	1.0044099	-0.20349319	-0.43991869	0.98407738	0.30610481	-0.58930106	0.77544735	-0.25616777	-0.20252754	0.94376723	0.24604114
148	0.588	-0.021104327	0.14183616	-0.07393101	-0.81087006	0.034504783	0.088517525	-0.14058252	0.098291811	-0.088162445	-0.92665769	0.10161236	0.11296207	-0.1437393	0.11447779	-0.0034411658	-0.89966464	0.11082304	0.027321713	-0.17915783	0.030678435	-0.036075939	-0.98636496	0.098053786	0.053799445	-0.2904437	0.43506485	-0.092762221	-0.69755269	0.41731157	0.14466136	-0.31130009	0.42757761	0.03183949	-0.71485941	0.4186696	0.01165959	-0.4814317	0.76770554	-0.14413431	-0.57582084	0.7578308	0.19378127	-0.42545663	0.81094739	-0.084107289	-0.46398472	0.80628227	0.16205377	-0.62640965	0.88358829	0.018533493	-0.52946148	1.2931196	-0.16147623	-0.49236886	1.2869707	0.19599488	-0.59008991	1.3250749	0.02385387	-0.64451127	1.0037718	-0.2037286	-0.43278881	0.98344171	0.30525235	-0.58419949	0.77446761	-0.2567883	-0.19518031	0.94374508	0.24513002
149	0.592	-0.015866841	0.13881481	-0.073489246	-0.81046207	0.034538061	0.088651642	-0.13550526	0.096166789	-0.087476272	-0.92471029	0.10395227	0.1136992	-0.13854604	0.11247318	-0.0028737004	-0.89764447	0.1128655	0.028080648	-0.17468023	0.028942693	-0.035338632	-0.9844045	0.10163355	0.05467963	-0.28207364	0.43511168	-0.092759595	-0.69174191	0.41711152	0.14482143	-0.30297741	0.42783563	0.031681508	-0.7086977	0.41829707	0.011740305	-0.47321033	0.76758441	-0.14425094	-0.56835036	0.75685259	0.19340222	-0.41748487	0.81065993	-0.083858301	-0.45698243	0.80537083	0.1620263	-0.619129	0.88282469	0.017285555	-0.52183684	1.2921428	-0.1622984	-0.48532479	1.2864692	0.19523715	-0.58284652	1.3243146	0.022916484	-0.63762824	1.0031931	-0.20401749	-0.42577357	0.98282716	0.30439161	-0.57896033	0.77355936	-0.25742137	-0.18793179	0.94363833	0.24424911
150	0.596	-0.011033521	0.13547951	-0.07303001	-0.81002061	0.034568119	0.088783422	-0.13090358	0.09384522	-0.086808245	-0.92260421	0.10638453	0.11444323	-0.13379428	0.11028233	-0.0023096087	-0.89542202	0.11498184	0.028861148	-0.17073222	0.027097867	-0.034570219	-0.98222636	0.10540072	0.055501665	-0.27366322	0.43519837	-0.092763613	-0.68569061	0.41691757	0.14499174	-0.29466524	0.42805508	0.031509403	-0.70234527	0.41792459	0.011826909	-0.46493727	0.7675197	-0.14437313	-0.56127455	0.75585485	0.19308008	-0.40942884	0.81042979	-0.083646521	-0.4498202	0.80449562	0.16200811	-0.61188801	0.88209442	0.015901539	-0.51414822	1.2912282	-0.16314332	-0.47821233	1.2860379	0.19445876	-0.57550875	1.3235617	0.021986842	-0.63065051	1.002678	-0.20433451	-0.41886955	0.98223947	0.30352762	-0.5735586	0.77272643	-0.25806783	-0.18078333	0.94344444	0.24340522
151	0.6	-0.0065772596	0.13185825	-0.072526303	-0.8095404	0.034598246	0.088904076	-0.12673097	0.091366032	-0.086143283	-0.92033796	0.10890827	0.11518558	-0.12943045	0.10793626	-0.0017321036	-0.89294421	0.11717121	0.029676992	-0.16729992	0.025174199	-0.033773781	-0.97978676	0.1093597	0.05624507	-0.26525862	0.43529428	-0.092776724	-0.67942017	0.41670289	0.14517448	-0.2863795	0.42821437	0.031323934	-0.69581023	0.417536	0.011940335	-0.45666529	0.76748481	-0.14451006	-0.55460311	0.75492123	0.19261154	-0.40128928	0.810249	-0.083481339	-0.44254757	0.80366929	0.16200242	-0.60464901	0.88141329	0.014332347	-0.50639853	1.29037	-0.16400675	-0.47104376	1.285668	0.19365837	-0.56811038	1.3228378	0.021045849	-0.62358146	1.0022297	-0.20468484	-0.41205638	0.98168529	0.30264874	-0.56800118	0.77196831	-0.25871967	-0.173745	0.94316313	0.24260044
152	0.604	-0.0024721518	0.12799232	-0.071969883	-0.80901866	0.034620151	0.089005056	-0.12293616	0.088761474	-0.085479493	-0.91791163	0.11151992	0.11592101	-0.1254288	0.10544918	-0.0011487085	-0.89016727	0.11943728	0.03052946	-0.16433919	0.023179601	-0.032964011	-0.97703867	0.11347864	0.056887698	-0.25689801	0.43538116	-0.092792996	-0.67293535	0.41645327	0.14538462	-0.27813378	0.42829581	0.03112916	-0.68912525	0.41713858	0.012109684	-0.44837373	0.76748106	-0.1446469	-0.54806023	0.75406493	0.19205815	-0.39308077	0.81010939	-0.083372734	-0.43525234	0.80290117	0.16197095	-0.59732592	0.8808059	0.012627759	-0.49858979	1.2895677	-0.16488647	-0.46382484	1.28535	0.19283366	-0.56066637	1.3221467	0.020084751	-0.61642432	1.0018408	-0.20508675	-0.40531427	0.98116424	0.30174453	-0.56230032	0.7712808	-0.25936205	-0.16682693	0.94279433	0.24183838
